<svg width="18" height="18" viewBox="0 0 18 18" fill="none" xmlns="http://www.w3.org/2000/svg">
<g id="Frame">
<g id="Group">
<path id="Vector" fill-rule="evenodd" clip-rule="evenodd" d="M16.3125 14.0625H12.7493C12.2022 14.0625 11.6776 13.8452 11.2908 13.4584C10.904 13.0716 10.6867 12.547 10.6867 12V10.5C10.6867 9.95299 10.904 9.42838 11.2908 9.04159C11.6776 8.6548 12.2022 8.4375 12.7493 8.4375H16.3125V7.5C16.3125 6.95325 16.095 6.42825 15.7087 6.04125C15.3216 5.65485 14.797 5.43773 14.25 5.4375H3.75C3.20325 5.4375 2.67825 5.655 2.29125 6.04125C1.90485 6.42842 1.68773 6.953 1.6875 7.5V15C1.6875 15.5467 1.905 16.0717 2.29125 16.4587C2.67842 16.8452 3.203 17.0623 3.75 17.0625H14.25C14.7968 17.0625 15.3217 16.845 15.7087 16.4587C16.0952 16.0716 16.3123 15.547 16.3125 15V14.0625ZM16.3125 9.5625V12.9375H12.7493C12.2318 12.9375 11.8117 12.5175 11.8117 12V10.5C11.8117 9.9825 12.2318 9.5625 12.7493 9.5625H16.3125ZM13.125 10.5C13.3239 10.5 13.5147 10.579 13.6553 10.7197C13.796 10.8603 13.875 11.0511 13.875 11.25C13.875 11.4489 13.796 11.6397 13.6553 11.7803C13.5147 11.921 13.3239 12 13.125 12C12.9261 12 12.7353 11.921 12.5947 11.7803C12.454 11.6397 12.375 11.4489 12.375 11.25C12.375 11.0511 12.454 10.8603 12.5947 10.7197C12.7353 10.579 12.9261 10.5 13.125 10.5ZM12.066 4.6875H14.25C14.3933 4.6875 14.5358 4.69875 14.676 4.71975L15.0315 3.95625C15.0944 3.82117 15.1012 3.66664 15.0503 3.52659C14.9994 3.38653 14.895 3.2724 14.76 3.20925L10.0013 0.989998C9.86608 0.927126 9.71148 0.920484 9.57141 0.971533C9.43134 1.02258 9.31727 1.12714 9.25425 1.26225L8.8515 2.1255L11.3265 3.279C11.587 3.40043 11.8004 3.604 11.934 3.85844C12.0676 4.11289 12.1139 4.40414 12.066 4.6875ZM4.25625 4.6875H11.2905C11.347 4.5534 11.3494 4.40262 11.2971 4.26682C11.2448 4.13102 11.1419 4.02078 11.01 3.95925L6.25125 1.74C6.11608 1.67713 5.96147 1.67048 5.82141 1.72153C5.68134 1.77258 5.56727 1.87714 5.50425 2.01225L4.25625 4.6875Z" fill="white"/>
</g>
</g>
</svg>
