<svg xmlns="http://www.w3.org/2000/svg" width="18" height="18" viewBox="0 0 18 18" fill="none">
  <path d="M15.4716 11.9992C15.4132 11.9289 15.3559 11.8586 15.2997 11.7907C14.5262 10.8552 14.0583 10.2906 14.0583 7.64227C14.0583 6.27117 13.7303 5.14617 13.0838 4.30242C12.607 3.6791 11.9626 3.20625 11.1133 2.8568C11.1023 2.85072 11.0926 2.84274 11.0844 2.83324C10.7789 1.8102 9.9429 1.125 9.00001 1.125C8.05712 1.125 7.22146 1.8102 6.91595 2.83219C6.9078 2.84134 6.89817 2.84906 6.88747 2.85504C4.90536 3.67102 3.94208 5.23652 3.94208 7.64121C3.94208 10.2906 3.47486 10.8552 2.70072 11.7896C2.64447 11.8575 2.58716 11.9264 2.5288 11.9981C2.37805 12.1799 2.28254 12.4011 2.25357 12.6355C2.2246 12.8699 2.26338 13.1077 2.36533 13.3207C2.58224 13.7777 3.04454 14.0614 3.57224 14.0614H14.4317C14.9569 14.0614 15.416 13.7781 15.6336 13.3232C15.736 13.1101 15.7752 12.8721 15.7465 12.6374C15.7177 12.4028 15.6223 12.1813 15.4716 11.9992ZM9.00001 16.875C9.50803 16.8746 10.0065 16.7367 10.4425 16.4759C10.8785 16.2152 11.2357 15.8413 11.4764 15.3939C11.4878 15.3724 11.4934 15.3484 11.4927 15.3242C11.492 15.2999 11.4851 15.2763 11.4725 15.2555C11.46 15.2347 11.4423 15.2176 11.4212 15.2056C11.4001 15.1937 11.3762 15.1875 11.352 15.1875H6.64876C6.62448 15.1874 6.60059 15.1936 6.57941 15.2055C6.55824 15.2174 6.54051 15.2346 6.52794 15.2554C6.51537 15.2761 6.5084 15.2998 6.5077 15.3241C6.507 15.3484 6.51261 15.3724 6.52396 15.3939C6.76462 15.8412 7.12184 16.2151 7.55777 16.4758C7.99369 16.7366 8.49205 16.8745 9.00001 16.875Z" fill="white"/>
</svg>