<svg xmlns="http://www.w3.org/2000/svg" width="18" height="18" viewBox="0 0 18 18" fill="none">
  <path d="M15.0779 0H4.72947C4.0039 0.000894863 3.41593 0.58886 3.41504 1.31443V5.41351L1.71492 7.09C1.68091 7.12354 1.65391 7.16351 1.63549 7.20758C1.61706 7.25164 1.60757 7.29894 1.60758 7.3467V9.1049C1.60758 9.2005 1.64555 9.29219 1.71315 9.35979C1.78075 9.42739 1.87244 9.46537 1.96804 9.46537H2.70415V10.5619L1.74294 11.3209C1.7006 11.3547 1.66644 11.3977 1.643 11.4466C1.61956 11.4955 1.60745 11.549 1.60758 11.6032V16.6855C1.60847 17.4111 2.19644 17.9991 2.92201 18H15.0779C15.8035 17.9991 16.3914 17.4111 16.3923 16.6855V1.31443C16.3915 0.58886 15.8035 0.000894863 15.0779 0ZM13.4575 0.720893H14.1696V3.39303H13.4571L13.4575 0.720893ZM10.8511 0.720893H11.5632V4.5769H10.8507L10.8511 0.720893ZM8.24465 0.720893H8.95672V4.5769H8.24424L8.24465 0.720893ZM5.63779 4.5769V0.720893H6.34986L6.35027 4.5769H5.63779ZM11.7738 14.8064C11.7744 15.3855 11.622 15.8346 11.3169 16.1537H11.3165C11.0113 16.4727 10.5818 16.6322 10.0281 16.6322C9.78052 16.6364 9.53434 16.5947 9.30197 16.5093C9.08807 16.4261 8.89443 16.2982 8.73406 16.134C8.57336 15.9708 8.44733 15.7768 8.36359 15.5637C8.27573 15.3444 8.23099 15.1103 8.23184 14.874C8.22886 14.6374 8.27212 14.4025 8.35919 14.1824C8.44714 13.9687 8.57773 13.7751 8.743 13.6136C8.90827 13.452 9.10473 13.3259 9.3204 13.2428C9.54577 13.1574 9.78506 13.1146 10.0261 13.1167C10.3285 13.1107 10.628 13.1776 10.8992 13.3117C11.1591 13.447 11.3798 13.647 11.54 13.8924L10.7462 14.2733C10.6627 14.1535 10.5532 14.0543 10.4258 13.983C10.3031 13.9185 10.1663 13.8857 10.0277 13.8877C9.75376 13.8877 9.53801 13.9791 9.38052 14.162C9.22298 14.3449 9.14423 14.5947 9.14423 14.9113C9.14423 15.2317 9.22298 15.4834 9.38052 15.6663C9.53805 15.8492 9.7538 15.941 10.0277 15.9418C10.2602 15.9418 10.4541 15.8848 10.6092 15.7708C10.6841 15.7182 10.7471 15.6504 10.7942 15.5719C10.8412 15.4934 10.8713 15.4059 10.8824 15.315H9.97125V14.6106H11.7703C11.7719 14.6336 11.7731 14.6588 11.7739 14.6863C11.7747 14.7138 11.7746 14.7538 11.7738 14.8064ZM14.8577 16.0652H14.8573C14.7826 16.2005 14.6696 16.3107 14.5325 16.382C14.3993 16.449 14.2558 16.4933 14.108 16.5129C13.9398 16.5396 13.6643 16.553 13.2817 16.553H12.3345V13.1924H13.2557C13.6351 13.1924 13.9001 13.2047 14.0507 13.2293C14.1866 13.2489 14.3181 13.2916 14.4396 13.3555C14.5582 13.419 14.6565 13.5148 14.7231 13.6318C14.7901 13.7545 14.8238 13.8926 14.8208 14.0323C14.8208 14.2235 14.7722 14.3753 14.6751 14.4877C14.5779 14.6001 14.423 14.6854 14.2105 14.7436C14.4491 14.762 14.636 14.8457 14.7712 14.9947C14.9063 15.1437 14.973 15.343 14.9714 15.5927C14.9748 15.7573 14.9356 15.9201 14.8577 16.0652Z" fill="white"/>
  <path d="M13.8332 14.46C13.9173 14.4103 13.9594 14.3242 13.9594 14.2016C13.9594 14.0748 13.9193 13.9856 13.8392 13.9341C13.7591 13.8826 13.6057 13.857 13.379 13.8572H13.1816V14.534H13.3654C13.5932 14.5346 13.7491 14.5099 13.8332 14.46ZM13.9778 15.2173C13.8953 15.1615 13.7423 15.1336 13.5188 15.1336H13.1836V15.8657H13.504C13.7213 15.8657 13.8751 15.839 13.9654 15.7856C14.0556 15.7322 14.1008 15.6416 14.1008 15.5137C14.1013 15.3719 14.0603 15.2731 13.9778 15.2173Z" fill="white"/>
</svg>