<svg xmlns="http://www.w3.org/2000/svg" width="18" height="18" viewBox="0 0 18 18" fill="none">
  <g clip-path="url(#clip0_2_93)">
    <path d="M17.4253 16.3951L13.1412 11.9395C14.2431 10.6322 14.8471 8.97725 14.8463 7.26749C14.8463 3.26026 11.586 0 7.57877 0C3.57154 0 0.311279 3.26026 0.311279 7.26749C0.311279 11.2747 3.57154 14.535 7.57877 14.535C9.08314 14.535 10.5167 14.0812 11.7424 13.2199L16.059 17.7093C16.2394 17.8967 16.4821 18 16.7421 18C16.9883 18 17.2218 17.9062 17.3991 17.7355C17.58 17.5611 17.6843 17.322 17.6893 17.0708C17.6942 16.8195 17.5992 16.5765 17.4253 16.3951ZM7.57877 1.89587C10.5407 1.89587 12.9504 4.30552 12.9504 7.26749C12.9504 10.2295 10.5407 12.6391 7.57877 12.6391C4.6168 12.6391 2.20715 10.2295 2.20715 7.26749C2.20715 4.30552 4.6168 1.89587 7.57877 1.89587Z" fill="white"/>
  </g>
  <defs>
    <clipPath id="clip0_2_93">
      <rect width="18" height="18" fill="white"/>
    </clipPath>
  </defs>
</svg>